# xmcd CD database file generated by freedbAccess_ocx
#
# Track frame offsets:
#       150
#       8462
#       19387
#       28670
#       39151
#       49068
#       58344
#       69187
#       79131
#       90538
#       100356
#       111124
#
# Disc length: 1609 seconds
#
# Revision: 0
# Processed by: cddbd v1.4PL0 Copyright (c) Steve Scherf et al.
# Submitted via: CDnGo 1.95
#
DISCID=8e06470c
DTITLE=George Jones - Country Stars And Stripes
DYEAR=2001
DGENRE=Country
TTITLE0=I'm A One Woman Man
TTITLE1=Accidentally On Purpose
TTITLE2='Cause I Love  You
TTITLE3=Window Up Above
TTITLE4=Heartbreak Hotel
TTITLE5=Maybe Little Baby
TTITLE6=You're In My Heart
TTITLE7=Wasted Words
TTITLE8=One Is A Lonely Number
TTITLE9=Rain Keeps A-Fallin'
TTITLE10=Who Shot Sam
TTITLE11=Sweet Dreams
EXTD=
EXTT0=
EXTT1=
EXTT2=
EXTT3=
EXTT4=
EXTT5=
EXTT6=
EXTT7=
EXTT8=
EXTT9=
EXTT10=
EXTT11=
PLAYORDER=
